<?xml version="1.0" encoding="UTF-8"?>
<svg width="32" height="32" version="1.1" viewBox="0 0 8.4667 8.4667" xmlns="http://www.w3.org/2000/svg">
 <g transform="translate(-52.265 -124.02)">
  <g fill="#fff" stroke-width=".26458" aria-label="FILMY.cz">
   <path d="m59.067 125.36q-0.12402 0.0827-0.29972 0.0827-0.10335 0-0.18087-0.0207-0.13436-0.0258-0.44442-0.0258-0.64079 0-1.4676 0.093-0.82165 0.093-1.1265 0.21704-0.32556 0.98185-0.40308 2.3409 0.21187-0.031 0.42891-0.0568 0.80098-0.0827 1.4934-0.21187 0.57877-0.10335 0.93017-0.10335 0.78548 0 0.78548 0.54776 0 0.0982-0.15503 0.26872-0.14986 0.16536-0.32556 0.23771-0.1757 0.0724-0.65112 0.13953l-1.3849 0.17053q-0.79581 0.0982-1.1782 0.19637-0.05684 0.0258-0.08785 0.0982-0.02584 0.0672-0.07235 0.62529-0.04134 0.55293-0.04134 1.0232l0.02067 0.65629q0 0.60978-0.56844 0.60978-0.28939 0-0.55294-0.21188-0.25838-0.21187-0.25838-0.5736 0-0.6718 0.15503-1.9275 0.01033-0.0568 0.53743-3.8189 0-0.17569-0.05168-0.29972-0.07751-0.22221-0.07751-0.35656 0-0.18604 0.21704-0.38758 0.22221-0.2067 0.40824-0.2067 0.12402 0 0.25838 0.031 0.1912 0.0413 0.39791 0.0413 0.20154 0 1.6536-0.16537 0.94568-0.10335 1.4108-0.10335 0.49092 0 0.75964 0.15503 0.27388 0.14986 0.27388 0.27388 0 0.43408-0.40308 0.66663z" fill="#9C27B0"/>
  </g>
 </g>
</svg>
