<?xml version="1.0" encoding="UTF-8"?>
<svg width="214" height="32" version="1.1" viewBox="0 0 56.621 8.4667" xmlns="http://www.w3.org/2000/svg">
 <g transform="translate(-41.538 -123.71)">
  <g fill="#fff" stroke-width=".26458" aria-label="FILMY.cz">
   <path d="m57.805 125.11q-0.12402 0.0827-0.29972 0.0827-0.10335 0-0.18087-0.0207-0.13436-0.0258-0.44442-0.0258-0.64079 0-1.4676 0.093-0.82165 0.093-1.1265 0.21704-0.32556 0.98185-0.40308 2.3409 0.21187-0.031 0.42891-0.0568 0.80098-0.0827 1.4934-0.21187 0.57877-0.10335 0.93017-0.10335 0.78548 0 0.78548 0.54776 0 0.0982-0.15503 0.26872-0.14986 0.16536-0.32556 0.23771-0.1757 0.0724-0.65112 0.13953l-1.3849 0.17053q-0.79581 0.0982-1.1782 0.19637-0.05684 0.0258-0.08785 0.0982-0.02584 0.0672-0.07235 0.62529-0.04134 0.55293-0.04134 1.0232l0.02067 0.65629q0 0.60978-0.56844 0.60978-0.28939 0-0.55294-0.21188-0.25838-0.21187-0.25838-0.5736 0-0.6718 0.15503-1.9275 0.01033-0.0568 0.53743-3.8189 0-0.17569-0.05168-0.29972-0.07751-0.22221-0.07751-0.35656 0-0.18604 0.21704-0.38758 0.22221-0.2067 0.40824-0.2067 0.12402 0 0.25838 0.031 0.1912 0.0413 0.39791 0.0413 0.20154 0 1.6536-0.16537 0.94568-0.10335 1.4108-0.10335 0.49092 0 0.75964 0.15503 0.27388 0.14986 0.27388 0.27388 0 0.43408-0.40308 0.66663z"/>
   <path d="m60.265 126.43q-0.11369 0.47026-0.14469 0.74931 0 0.14986-0.10335 0.76997-0.17053 1.1059-0.17053 1.509 0 0.68213 0.08268 1.3436 0.06201 0.48059-0.19637 0.7028-0.25838 0.21704-0.51676 0.21704-0.3669 0-0.52193-0.31522-0.15503-0.3204-0.15503-1.1059 0-0.48575 0.24288-2.3151l0.28422-2.0206q0.08785-0.44441 0.12919-0.82682 0.06201-0.56327 0.14986-0.69246 0.09302-0.13436 0.32556-0.27905 0.23254-0.14986 0.3514-0.14986 0.29972 0 0.45475 0.24288 0.1602 0.24288 0.1602 0.59427z"/>
   <path d="m66.761 131.31q-0.12402 0-0.42891-0.031-0.30489-0.0258-0.44958-0.0258-1.4108 0-2.7388 0.41857-0.54777 0.1757-0.78031 0.1757-0.31522 0-0.49092-0.24804-0.1757-0.24805-0.1757-0.47542 0-0.093 0.09302-0.47543 0.11886-0.47542 0.1912-1.0852l0.46509-4.284q0.05684-0.60978 0.09819-0.79065 0.04651-0.18086 0.22738-0.32556 0.18087-0.14469 0.49092-0.14469 0.24805 0 0.43408 0.18603 0.18604 0.18604 0.18604 0.40308 0 0.19637-0.09302 0.7028-0.13436 0.72346-0.37724 2.7802-0.24288 2.0567-0.24288 2.1756 0 0.14986 0.05168 0.14986 0.19637 0 1.08-0.13952 0.41341-0.0672 0.83716-0.0879 1.2092-0.0568 1.695-0.1757 0.15503-0.0362 0.22738-0.0362 0.28422 0 0.44442 0.17053 0.1602 0.16537 0.1602 0.39791 0 0.34623-0.27905 0.55811-0.27388 0.2067-0.62528 0.2067z"/>
   <path d="m75.695 125.87-1.7208 2.3254q-1.1937 1.6692-1.8397 1.6692-0.29972 0-0.53227-0.34107-0.23254-0.34623-0.47542-1.049-0.24288-0.70279-0.34106-1.0645-0.22221-0.83715-0.29972-0.95084l-0.26355 1.3436q-0.12402 0.65112-0.25321 1.1989-0.12919 0.5426-0.28422 1.3074-0.14986 0.76481-0.18604 1.1524-0.01033 0.12919-0.24805 0.27905-0.23254 0.14986-0.35657 0.14986-0.24805 0-0.46509-0.23254-0.21187-0.22737-0.21187-0.43925 0-0.49609 0.2067-1.2609 0.85266-3.1316 0.97151-3.9429 0.12402-0.81131 0.12402-1.3488 0-0.27905 0.24288-0.42891t0.63562-0.14986q0.21187 0 0.42375 0.27905 0.21187 0.27905 0.27905 0.51676l-0.0052-0.0103 0.7183 2.0102q0.42891 1.2041 0.57361 1.5296 0.5581-0.60461 1.6536-2.1032 1.0955-1.4934 1.4986-1.9224t0.56844-0.42891q0.25321 0 0.56327 0.21187t0.31006 0.36173q0 0.11369-0.20154 1.5555-0.13953 1.018-0.25321 2.2789-0.11369 1.2609-0.11369 1.4883 0 0.27905 0.07235 0.57361 0.05168 0.22737 0.05168 0.42891 0 0.51159-0.18087 0.69763-0.1757 0.18603-0.54777 0.18603-0.67696 0-0.67696-1.018 0-0.96118 0.1757-2.3461 0.1757-1.3901 0.32039-2.1342 0.05168-0.26872 0.06718-0.37207z"/>
   <path d="m82.191 128.13v-5e-3q-0.1602 0.43408-0.3669 2.8577-0.03617 0.53744-0.11886 0.62529-0.07751 0.0879-0.29972 0.16536-0.21704 0.0827-0.33073 0.0827-0.57361 0-0.57361-0.77514 0-0.34623 0.15503-1.3074 0.15503-0.95601 0.15503-1.3384 0-0.22221-0.06201-0.41341-0.42891-0.45992-1.0439-1.2919-0.71313-0.95085-1.018-1.1782-0.60978-0.43925-0.77514-0.67179-0.1602-0.23772-0.1602-0.42892 0-0.11885 0.22221-0.30489 0.22738-0.18603 0.41341-0.18603 0.78031 0 2.434 2.2117 0.54777 0.74414 0.75447 0.93017 0.19637-0.21187 0.40308-0.46508 0.20154-0.25322 0.41341-0.46509 1.2506-1.2867 1.6846-1.8862 0.41341-0.57878 0.91467-0.57878 0.22738 0 0.37207 0.18604 0.14469 0.18603 0.14469 0.38757 0 0.30489-1.881 2.2376-1.3643 1.4211-1.4366 1.6123z"/>
   <path d="m86.186 130.13h0.11369q0.09302 0 0.22221 0.093 0.12919 0.0878 0.12919 0.24288 0 0.31006-0.10852 0.45475t-0.3514 0.32039q-0.23771 0.1757-0.3359 0.1757-0.21704 0-0.32039-0.0982t-0.10335-0.53744q0-0.40824 0.04651-0.48575 0.04651-0.0775 0.22221-0.11886 0.18087-0.0465 0.48576-0.0465z"/>
   <path d="m89.508 131.86q-0.77514 0-1.1937-0.44441-0.41341-0.44442-0.41341-1.2454 0-1.3488 1.0697-2.8422 1.0697-1.4986 1.9895-1.4986 0.41858 0 0.7183 0.45475 0.30489 0.44959 0.30489 0.95601 0 0.30489-0.13436 0.5271-0.12919 0.21704-0.26355 0.21704-0.29972 0-0.42375-0.60461-0.13953-0.65112-0.40308-0.65112-0.53743 0-1.2712 1.2764-0.7338 1.2764-0.7338 2.1549t0.99735 0.8785q0.75964 0 1.788-0.71313 0.36173-0.25322 0.53227-0.25322 0.1757 0 0.1757 0.20154 0 0.39274-0.925 0.99218-0.92501 0.59428-1.8138 0.59428z"/>
   <path d="m97.849 131.5q-0.13436-0.0568-0.25838-0.12402-0.45475-0.22738-1.2299-0.22738-0.44958 0-1.4986 0.1757-1.049 0.17054-1.4314 0.5271-0.26355 0.23254-0.55294 0.23254-0.1602 0-0.35657-0.093-0.20154-0.093-0.21187-0.25322 0.24288-0.26871 0.67179-0.70279 2.3306-2.3668 3.545-3.9274-0.02067-0.0465-0.16536-0.0465-0.27388 0-1.1679 0.12919-0.40308 0.062-0.83716 0.062-1.0594 0-1.0594-0.5581 0-0.42375 0.47025-0.42375 0.02584 0 0.09819 0.0258 0.37207 0.15503 0.89917 0.15503 0.69763 0 1.5761-0.11369 0.08785-0.0155 0.2067-0.031 0.11369-0.0103 0.26355-0.0413 0.29972-0.0517 0.47542-0.0517t0.35657 0.093q0.18604 0.093 0.1602 0.29972l-0.0052 0.0207q-0.11369 0.44958-2.7337 3.2453-0.63045 0.67696-0.67696 0.80098 0.02067 0.0517 0.10335 0.0517 0.07235 0 0.72347-0.13953 1.2196-0.26355 1.85-0.26355 0.98702 0 0.98702 0.59945 0 0.37724-0.20154 0.57877z"/>
  </g>
 </g>
 <path d="m3.3073 6.8325v-1.9844l1.6537 0.9922zm4.6303-5.1677-0.00263-0.013891-0.33338-1.4331-7.0013 1.3878c-0.34859 0.069124-0.60028 0.37505-0.60028 0.72993v4.8277c0 0.54802 0.44417 0.9922 0.9922 0.9922h5.9532c0.54769 0 0.9922-0.44417 0.9922-0.9922v-4.6303h-4.2116zm-1.2865-0.86586 0.79243 0.5305-0.99021 0.19679-0.7931-0.53083zm-1.9503 0.38663 0.79343 0.53116-0.98988 0.19679-0.79442-0.53149zm-1.953 0.38729 0.79475 0.53182-0.98988 0.19679-0.79574-0.53248zm0.8394 1.2908-0.67436 0.66147h-1.0101l0.67436-0.66147zm2.9693 0h1.0101l-0.67403 0.66147h-1.0104zm-1.9884 0h1.0097l-0.67436 0.66147h-1.0097zm2.708 1.3229v2.8939c0 0.2282-0.18521 0.41342-0.41342 0.41342h-5.7878c-0.2282 0-0.41342-0.18521-0.41342-0.41342v-2.8939z" fill="#fff" stroke-width=".33073"/>
</svg>
